# xmcd CD database file
#
# Track frame offsets:
#	150
#	14775
#	30050
#	45487
#	70600
#	88162
#	111050
#	130525
#	145387
#	161325
#	178200
#	199787
#
# Disc length: 2911 seconds
#
# Revision: 0
# Processed by: cddbd v1.5.1PL0 Copyright (c) Steve Scherf et al.
# Submitted via: CDex 1.51
#
DISCID=990b5d0c
DTITLE=Various Artist - No.1 Hit Selection of U.S.A. 1980-1989
DYEAR=1900
DGENRE=Vocal
TTITLE0=Dan Fogelberg/Longer
TTITLE1=REO Speedwagon/Keep On Loving You
TTITLE2=Men At Work/Who Can It Be Now?
TTITLE3=Bonnie Tyler/Total Eclipse Of The Heart
TTITLE4=NENA/99 Luftballones
TTITLE5=Wham!/Careless Whisper
TTITLE6=Paul Young/Everytime You Go Away
TTITLE7=George Michael/Faith
TTITLE8=Terence Trent D'Arby/Wishing Well
TTITLE9=Gloria Estefan and Miami Sound Machine/Anything For You
TTITLE10=Cheap Trick/The Flame
TTITLE11=Will To Power/Baby, I Love Your Way
EXTD=
EXTT0=
EXTT1=
EXTT2=
EXTT3=
EXTT4=
EXTT5=
EXTT6=
EXTT7=
EXTT8=
EXTT9=
EXTT10=
EXTT11=
PLAYORDER=
